<svg width="123" height="32" viewBox="0 0 123 32" fill="none" xmlns="http://www.w3.org/2000/svg">
<path d="M54.2013 5.85704H46.4002V12.9259H52.9347C53.8863 12.9259 54.3622 13.4106 54.3622 14.38V17.3489C54.3622 18.3184 53.8863 18.8031 52.9347 18.8031H46.4002V30.2748C46.4002 31.2443 45.9176 31.729 44.9525 31.729H41.997C41.0319 31.729 40.5493 31.2443 40.5493 30.2748V5.59448C40.5493 4.05953 41.0922 2.74675 42.1779 1.65613C43.2636 0.552043 44.5772 0 46.1187 0H54.2013C55.1664 0 55.649 0.48472 55.649 1.45416V4.42307C55.649 5.37905 55.1664 5.85704 54.2013 5.85704Z" fill="white"/>
<path d="M72.2566 31.729H64.0332C62.5052 31.729 61.1983 31.1837 60.1125 30.0931C59.0268 29.0024 58.4839 27.6896 58.4839 26.1547V1.45416C58.4839 0.48472 58.9665 0 59.9316 0H72.136C73.1011 0 73.5836 0.48472 73.5836 1.45416V4.42307C73.5836 5.37905 73.1011 5.85704 72.136 5.85704H64.3147V12.9259H70.8492C71.8143 12.9259 72.2968 13.4106 72.2968 14.38V17.3489C72.2968 18.3184 71.8143 18.8031 70.8492 18.8031H64.3147V25.8719H72.2566C73.2217 25.8719 73.7042 26.3567 73.7042 27.3261V30.2748C73.7042 31.2443 73.2217 31.729 72.2566 31.729Z" fill="white"/>
<path d="M100.244 5.85704H92.4431V12.9259H98.9776C99.9293 12.9259 100.405 13.4106 100.405 14.38V17.3489C100.405 18.3184 99.9293 18.8031 98.9776 18.8031H92.4431V30.2748C92.4431 31.2443 91.9606 31.729 90.9955 31.729H88.0399C87.0748 31.729 86.5922 31.2443 86.5922 30.2748V5.59448C86.5922 4.05953 87.1351 2.74675 88.2208 1.65613C89.3066 0.552043 90.6202 0 92.1616 0H100.244C101.209 0 101.692 0.48472 101.692 1.45416V4.42307C101.692 5.37905 101.209 5.85704 100.244 5.85704Z" fill="white"/>
<path d="M120.21 30.3556C119.177 31.2712 117.964 31.729 116.57 31.729H110.358C108.816 31.729 107.456 31.15 106.276 29.9921C105.11 28.8207 104.527 27.454 104.527 25.8921V5.83684C104.527 4.28843 105.117 2.92852 106.296 1.75711C107.476 0.585704 108.836 0 110.378 0H116.55C118.092 0 119.459 0.592436 120.652 1.77731C121.858 2.96218 122.461 4.32882 122.461 5.87723V6.80628C122.461 7.76226 121.979 8.24024 121.014 8.24024H118.058C117.107 8.24024 116.631 7.76226 116.631 6.80628V5.85704H110.358V25.8719H116.631V24.7611C116.631 23.7917 117.107 23.307 118.058 23.307H121.014C121.979 23.307 122.461 23.7917 122.461 24.7611V25.8719C122.461 27.5685 121.711 29.063 120.21 30.3556Z" fill="white"/>
<ellipse cx="15.7933" cy="16.1355" rx="15.7933" ry="15.8645" fill="white"/>
<path fill-rule="evenodd" clip-rule="evenodd" d="M11.7399 4.5787C14.3475 3.6686 17.1841 3.66861 19.7918 4.5787C22.1835 5.4191 24.2559 6.98555 25.7223 9.06106L25.7224 9.06112C27.1891 11.1365 27.9771 13.6188 27.9775 16.1642C27.9775 16.1642 27.9775 16.1642 27.9775 16.1643V16.4411C27.9265 18.8453 27.1696 21.1806 25.8016 23.1543L25.8012 23.1549L25.8008 23.1555C24.3318 25.2871 22.2284 26.8961 19.7926 27.7524C17.3567 28.6085 14.7134 28.6678 12.2419 27.9214C9.77057 27.1751 7.59805 25.6617 6.03599 23.5981C4.51808 21.5928 3.65248 19.1685 3.55385 16.6552L3.55398 16.1643C3.55467 13.6189 4.34261 11.1365 5.80928 9.0611C7.27575 6.98561 9.34832 5.41917 11.7399 4.5787ZM20.1476 3.5519C17.3095 2.56124 14.2221 2.56124 11.3841 3.5519L11.3836 3.55209L11.383 3.55227C8.77943 4.46713 6.52314 6.17232 4.92668 8.4318C3.43237 10.5463 2.58537 13.0487 2.48231 15.6322L2.46496 15.6326V16.4529L2.46509 16.4587C2.52542 19.28 3.4739 22.0097 5.17443 24.2561C6.87491 26.5026 9.23996 28.1502 11.9303 28.9626C14.6209 29.7751 17.4983 29.7106 20.1501 28.7786C22.8013 27.8466 25.091 26.0953 26.6901 23.7751C28.1809 21.624 29.0053 19.0785 29.0597 16.4582L29.0598 16.4525V16.1641C29.0594 13.3934 28.2017 10.6911 26.605 8.4318M20.1476 3.5519L20.1481 3.55208L20.1476 3.5519ZM20.1481 3.55208L20.1486 3.55226L20.1481 3.55208ZM20.1486 3.55226C22.7524 4.46705 25.0085 6.17231 26.6049 8.43175L20.1486 3.55226Z" fill="black"/>
<path d="M15.7616 11.6345L20.0513 14.7638L18.4133 19.8302H13.1118L11.4739 14.7638L15.7616 11.6345Z" fill="black"/>
<path d="M11.4741 4.31899L15.7619 7.44845L20.0515 4.31899L19.9703 4.06539H19.9705C17.2475 3.11489 14.2852 3.11489 11.5623 4.06539L11.4741 4.31899Z" fill="black"/>
<path d="M24.0092 13.4715L28.3042 16.6009L28.5188 16.4468V16.1642C28.5231 13.3613 27.6082 10.6351 25.9159 8.40695H25.6525L24.0092 13.4715Z" fill="black"/>
<path d="M19.2234 28.2795L19.438 28.4352C22.2016 27.5994 24.6014 25.8472 26.2458 23.4647L26.1646 23.2147H20.8631L19.2234 28.2795Z" fill="black"/>
<path d="M5.27932 23.465C6.92486 25.8459 9.32431 27.5973 12.0871 28.4335L12.3018 28.2778L10.662 23.2042H5.36046L5.27932 23.465Z" fill="black"/>
<path d="M3.00649 16.1642V16.4469L3.21758 16.601L7.51074 13.4715L5.8728 8.39801H5.60939C3.91451 10.6284 2.99943 13.3585 3.0065 16.1643L3.00649 16.1642Z" fill="black"/>
<path fill-rule="evenodd" clip-rule="evenodd" d="M15.2204 6.90483V12.1779H16.3027V6.90483H15.2204Z" fill="black"/>
<path fill-rule="evenodd" clip-rule="evenodd" d="M24.3622 12.7868L19.3695 14.4145L19.7036 15.4486L24.6963 13.8209L24.3622 12.7868Z" fill="black"/>
<path fill-rule="evenodd" clip-rule="evenodd" d="M17.6573 19.7102L20.7435 23.9743L21.6189 23.335L18.5327 19.0709L17.6573 19.7102Z" fill="black"/>
<path fill-rule="evenodd" clip-rule="evenodd" d="M12.9922 19.0709L9.90607 23.335L10.7815 23.9743L13.8677 19.7102L12.9922 19.0709Z" fill="black"/>
<path fill-rule="evenodd" clip-rule="evenodd" d="M6.82873 13.8208L11.8214 15.4485L12.1555 14.4144L7.16285 12.7867L6.82873 13.8208Z" fill="black"/>
</svg>
